<?xml version="1.0" standalone="no"?>
<!DOCTYPE svg PUBLIC "-//W3C//DTD SVG 20010904//EN"
 "http://www.w3.org/TR/2001/REC-SVG-20010904/DTD/svg10.dtd">
<svg version="1.0" xmlns="http://www.w3.org/2000/svg"
 width="200.000000pt" height="200.000000pt" viewBox="0 0 200.000000 200.000000"
 preserveAspectRatio="xMidYMid meet">
<metadata>
Created by potrace 1.11, written by Peter Selinger 2001-2013
</metadata>
<g transform="translate(0.000000,200.000000) scale(0.100000,-0.100000)"
fill="#000000" stroke="none">
<path d="M1129 1866 c-25 -18 -30 -45 -14 -82 11 -27 11 -36 2 -39 -54 -16
-266 -88 -282 -96 -12 -6 -27 -11 -35 -13 -8 -2 -22 -6 -30 -9 -20 -8 -251
-88 -270 -94 -10 -3 -22 10 -35 39 -23 48 -51 60 -78 30 -13 -15 -15 -25 -7
-53 15 -51 14 -54 -33 -67 -52 -16 -79 -38 -102 -82 -21 -41 -21 -81 -1 -140
9 -25 33 -96 55 -159 l39 -115 -41 -29 c-107 -77 -175 -209 -179 -345 -4 -141
37 -246 134 -343 110 -111 279 -160 428 -124 19 5 100 10 180 11 80 1 148 2
151 3 11 2 18 41 8 47 -15 9 -10 34 6 28 8 -3 14 -9 13 -12 -4 -13 14 -52 23
-52 5 0 9 -9 9 -19 0 -12 9 -23 23 -27 30 -10 224 -11 267 -1 19 4 62 10 95
13 63 5 156 27 203 46 15 6 33 12 39 14 15 3 131 68 154 86 23 19 39 54 30 64
-5 5 -14 26 -21 47 -15 47 -101 137 -155 162 -22 11 -42 21 -45 25 -5 6 -94
45 -123 54 -15 5 -12 13 24 66 22 33 47 60 55 60 39 0 100 57 113 107 14 51
17 41 -112 413 -36 102 -77 219 -92 260 -14 41 -33 96 -41 121 -32 104 -93
154 -177 145 -26 -3 -53 -9 -60 -13 -25 -16 -35 -10 -47 27 -14 43 -47 64 -71
46z m51 -1261 c0 -2 -24 -17 -52 -31 -29 -14 -61 -34 -72 -43 -17 -15 -18 -15
-15 8 4 23 34 38 137 70 1 1 2 -1 2 -4z"/>
</g>
</svg>
